<?xml version="1.0" encoding="utf-8"?>
<!-- Generator: Adobe Illustrator 28.0.0, SVG Export Plug-In . SVG Version: 6.00 Build 0)  -->
<svg version="1.1" id="Layer_1" xmlns="http://www.w3.org/2000/svg" xmlns:xlink="http://www.w3.org/1999/xlink" x="0px" y="0px"
	 viewBox="0 0 451.6 499.8" style="enable-background:new 0 0 451.6 499.8;" xml:space="preserve">
<style type="text/css">
	.st0{fill:#1BB333;}
	.st1{fill:#00AAFF;}
</style>
<path class="st0" d="M137.5,601.6c-2.2,0.1-4.4,0.2-6.7,0.2s-4.5-0.1-6.7-0.2H137.5L137.5,601.6z"/>
<g>
	<path class="st1" d="M323.5,447.4H128.1c-28.9,0-52.3-23.4-52.3-52.3v-0.4c0-28.9,23.4-52.3,52.3-52.3h195.4
		c28.9,0,52.3,23.4,52.3,52.3v0.4C375.8,424,352.4,447.4,323.5,447.4z"/>
	<path class="st1" d="M208.9,302.3h-80.8c-28.9,0-52.3-23.4-52.3-52.3v-0.4c0-28.9,23.4-52.3,52.3-52.3h80.8
		c28.9,0,52.3,23.4,52.3,52.3v0.4C261.2,278.9,237.8,302.3,208.9,302.3z"/>
	<path class="st1" d="M138.1,157.4h-10c-28.9,0-52.3-23.4-52.3-52.3v-0.4c0-28.9,23.4-52.3,52.3-52.3h10c28.9,0,52.3,23.4,52.3,52.3
		v0.4C190.4,133.9,166.9,157.4,138.1,157.4z"/>
</g>
</svg>
