<?xml version="1.0" encoding="UTF-8"?>
<svg id="Layer_1" data-name="Layer 1" xmlns="http://www.w3.org/2000/svg" viewBox="0 0 1397.65 1349.65">
  <defs>
    <style>
      .cls-1 {
        fill: #0af;
      }

      .cls-1, .cls-2 {
        stroke-width: 0px;
      }

      .cls-2 {
        fill: #fff;
      }
    </style>
  </defs>
  <path class="cls-1" d="m355.87,828.7h-152.24c-22.52,0-40.75-18.23-40.75-40.75v-.31c0-22.52,18.23-40.75,40.75-40.75h152.24c22.52,0,40.75,18.23,40.75,40.75v.31c0,22.52-18.23,40.75-40.75,40.75Zm-89.29-113.05h-62.95c-22.52,0-40.75-18.23-40.75-40.75v-.31c0-22.52,18.23-40.75,40.75-40.75h62.95c22.52,0,40.75,18.23,40.75,40.75v.31c0,22.52-18.23,40.75-40.75,40.75Zm-55.16-112.9h-7.79c-22.52,0-40.75-18.23-40.75-40.75v-.31c0-22.52,18.23-40.75,40.75-40.75h7.79c22.52,0,40.75,18.23,40.75,40.75v.31c0,22.44-18.31,40.75-40.75,40.75Z"/>
  <g>
    <path class="cls-2" d="m520.16,520.94v273.52h138.68v34.24h-172.93v-307.76h34.24Z"/>
    <path class="cls-2" d="m712.35,584.51c-5.28,0-9.78-1.93-13.48-5.78-3.85-3.71-5.78-8.27-5.78-13.7s1.93-9.84,5.78-13.7c3.71-3.71,8.2-5.56,13.48-5.56s9.99,1.86,13.7,5.56c3.85,3.85,5.78,8.42,5.78,13.7s-1.93,9.99-5.78,13.7c-3.71,3.85-8.28,5.78-13.7,5.78Zm-16.91,37.88h34.03v206.31h-34.03v-206.31Z"/>
    <path class="cls-2" d="m954.83,622.82l-74.69,205.89h-40.24l-73.84-205.89h36.38l57.79,160.94,58.21-160.94h36.38Z"/>
    <path class="cls-2" d="m988.86,584.51c-5.28,0-9.78-1.93-13.48-5.78-3.85-3.71-5.78-8.27-5.78-13.7s1.93-9.84,5.78-13.7c3.71-3.71,8.2-5.56,13.48-5.56s9.99,1.86,13.7,5.56c3.85,3.85,5.78,8.42,5.78,13.7s-1.93,9.99-5.78,13.7c-3.71,3.85-8.28,5.78-13.7,5.78Zm-16.91,37.88h34.03v206.31h-34.03v-206.31Z"/>
    <path class="cls-2" d="m1117.48,826.78l-2.14-.43c-22.83-4.71-40.66-15.98-53.5-33.82-12.84-17.83-19.26-40.16-19.26-66.99s6.49-49.36,19.48-67.2c12.98-17.83,30.96-29.03,53.93-33.6l2.14-.64c6.56-1.14,13.41-1.71,20.55-1.71s14.05.64,20.76,1.93l1.93.43c16.12,3.42,29.18,11.06,39.17,22.9v-25.04h34.24v206.1h-34.24v-25.25c-9.85,11.7-22.69,19.34-38.52,22.9l-2.35.43c-6.71,1.28-13.7,1.93-20.97,1.93s-14.48-.64-21.19-1.93Zm-40.66-101.23c0,22.26,5.28,39.31,15.84,51.15,10.7,11.84,26.04,17.76,46.01,17.76s35.24-5.92,45.8-17.76c10.7-11.84,16.05-28.82,16.05-50.94v-.43c0-22.11-5.35-39.09-16.05-50.94-10.56-11.84-25.83-17.76-45.8-17.76s-35.31,5.92-46.01,17.76c-10.56,11.84-15.84,28.89-15.84,51.15Z"/>
  </g>
</svg>