<?xml version="1.0" encoding="UTF-8"?>
<svg id="Layer_1" data-name="Layer 1" xmlns="http://www.w3.org/2000/svg" viewBox="0 0 793.41 878.12">
  <defs>
    <style>
      .cls-1 {
        fill: #9c27b0;
      }

      .cls-1, .cls-2, .cls-3, .cls-4, .cls-5, .cls-6, .cls-7 {
        stroke-width: 0px;
      }

      .cls-2 {
        fill: #0af;
      }

      .cls-3 {
        fill: #1bb333;
      }

      .cls-4 {
        fill: #4caf50;
      }

      .cls-5 {
        fill: #ff9800;
      }

      .cls-6 {
        fill: #fa8032;
      }

      .cls-7 {
        fill: #f44336;
      }
    </style>
  </defs>
  <path class="cls-4" d="m445.81,215.13c0,70.71-57.32,128.03-128.03,128.03V87.43h-9.21c3.05-.22,6.12-.32,9.21-.32,70.71,0,128.03,57.32,128.03,128.03Z"/>
  <path class="cls-3" d="m308.44,790.81c-2.22.14-4.44.2-6.7.2s-4.48-.06-6.7-.2h13.41Z"/>
  <path class="cls-5" d="m317.78,344.31v221.63c-5.23.77-10.6,1.15-16.05,1.15-61.84,0-111.97-50.13-111.97-111.95s50.13-111.97,111.97-111.97c5.45,0,10.82.38,16.05,1.15Z"/>
  <path class="cls-1" d="m317.78,87.43v255.73c-70.71,0-128.03-57.32-128.03-128.03s52.41-122.98,118.82-127.7h9.21Z"/>
  <path class="cls-7" d="m317.78,343.16v1.15c-5.23-.77-10.6-1.15-16.05-1.15-61.84,0-111.97,50.13-111.97,111.97v-240c0,70.71,57.32,128.03,128.03,128.03Z"/>
  <path class="cls-7" d="m301.73,567.08c-61.84,0-111.97,50.13-111.97,111.97v-223.93c0,61.82,50.13,111.95,111.97,111.95Z"/>
  <path class="cls-2" d="m317.78,568.24v221.63c-3.07.44-6.2.77-9.35.95h-13.41c-58.73-3.47-105.27-52.17-105.27-111.75s50.13-111.97,111.97-111.97c5.45,0,10.82.38,16.05,1.15Z"/>
  <path class="cls-6" d="m317.78,565.93v2.3c-5.23-.77-10.6-1.15-16.05-1.15,5.45,0,10.82-.38,16.05-1.15Z"/>
  <path class="cls-3" d="m308.44,790.81c3.15-.18,6.28-.5,9.35-.95v.95h-9.35Z"/>
  <path class="cls-2" d="m603.65,679.41h0c0,61.39-49.71,111.19-111.1,111.29l-174.76.11v-222.58l174.4-.11c61.53-.1,111.47,49.75,111.47,111.29Z"/>
</svg>